<?xml version="1.0" encoding="UTF-8" standalone="no"?>
<svg width="1058px" height="431px" viewBox="0 0 1058 431" version="1.1" xmlns="http://www.w3.org/2000/svg" xmlns:xlink="http://www.w3.org/1999/xlink">
    <!-- Generator: Sketch 3.8.2 (29753) - http://www.bohemiancoding.com/sketch -->
    <title>cms_particle_flow</title>
    <desc>Created with Sketch.</desc>
    <defs>
        <polygon id="path-1" points="0.01354599 0 413.46048 0 268.26622 212 136.318886 212"></polygon>
        <polygon id="path-3" points="446.65033 167.101074 573.166311 167.101074 573.166306 141.06543 642.34967 194.5 573.166306 247.93457 573.166311 224.101074 446.65033 224.101074"></polygon>
        <mask id="mask-4" maskContentUnits="userSpaceOnUse" maskUnits="objectBoundingBox" x="0" y="0" width="195.699341" height="106.869141" fill="white">
            <use xlink:href="#path-3"></use>
        </mask>
    </defs>
    <g id="Page-1" stroke="none" stroke-width="1" fill="none" fill-rule="evenodd">
        <g id="cms_particle_flow">
            <path d="M179.5,332.5 C179.500003,332.5 189.144531,320.738281 335.039051,95.4389098 C290.383549,66.0803911 236.936444,49 179.5,49 C122.445166,49 69.3268371,65.8541793 24.852191,94.8553593 C164.828125,313.609375 179.499997,332.5 179.5,332.5 Z" id="Oval-1" fill="#F2F2F2"></path>
            <g id="Oval-2-+-Oval-2-Copy-+-Rectangle-1" transform="translate(-27.000000, 121.000000)">
                <mask id="mask-2" fill="white">
                    <use xlink:href="#path-1"></use>
                </mask>
                <g id="Mask"></g>
                <circle id="Oval-2" stroke="#009F5E" stroke-width="3" mask="url(#mask-2)" cx="207" cy="212" r="130"></circle>
                <circle id="Oval-2-Copy" stroke="#9012FE" stroke-width="3" mask="url(#mask-2)" cx="205.5" cy="212.5" r="207.5"></circle>
            </g>
            <path d="M179.5,331.5 C179.5,331.5 195.300332,291.647942 195.300332,260.257587 C195.300332,228.867233 183.5,205.5 183.5,205.5" id="Line" stroke="#4A4A4A" stroke-width="2" stroke-linecap="square"></path>
            <path d="M179.5,331.5 C179.5,331.5 170.471648,299.55493 168.670744,268.62386 C166.869841,237.692789 169.178311,205.747719 169.178311,205.747719" id="Line-Copy-2" stroke="#4A4A4A" stroke-width="2" stroke-linecap="square"></path>
            <path d="M179.5,331.5 C179.5,331.5 157.3906,299.55493 155.589697,268.62386 C153.788793,237.692789 172.178311,205.747719 172.178311,205.747719" id="Line-Copy-4" stroke="#4A4A4A" stroke-width="2" stroke-linecap="square"></path>
            <path d="M179.5,331.5 C179.5,331.5 172.971699,293.442868 143.984593,268.166073 C114.997487,242.889279 85.9575238,246.786331 85.9575238,246.786331" id="Line-Copy-3" stroke="#4A4A4A" stroke-width="2" stroke-linecap="square"></path>
            <path d="M179.5,331.5 C179.5,331.5 182.288174,295.682473 205.535414,269.621518 C228.782654,243.560564 257.890076,232.290086 257.890076,232.290086" id="Line-Copy" stroke="#4A4A4A" stroke-width="2" stroke-linecap="square"></path>
            <path d="M179.5,331.5 C179.5,331.5 175.13099,278.883936 186.619284,244.53747 C198.107579,210.191003 203.27776,182.00287 210.11459,140.51361 C216.95142,99.0243505 195.20642,27.659783 195.20642,27.659783" id="Line-Copy-5" stroke="#D33682" stroke-width="2" stroke-linecap="square" stroke-dasharray="5,10"></path>
            <circle id="Oval-4" stroke="#4A4A4A" stroke-width="2" fill="#9B9B9B" cx="179.5" cy="332.5" r="3.5"></circle>
            <rect id="Rectangle-2" fill="#009F5E" transform="translate(172.500000, 194.500000) rotate(-4.000000) translate(-172.500000, -194.500000) " x="167" y="187" width="11" height="15"></rect>
            <rect id="Rectangle-2-Copy-2" fill="#009F5E" transform="translate(221.500000, 197.500000) rotate(16.000000) translate(-221.500000, -197.500000) " x="216" y="187" width="11" height="21"></rect>
            <rect id="Rectangle-2-Copy-3" fill="#009F5E" transform="translate(77.500000, 239.000000) rotate(-49.000000) translate(-77.500000, -239.000000) " x="72" y="231" width="11" height="16"></rect>
            <rect id="Rectangle-2-Copy" fill="#009F5E" transform="translate(160.500000, 189.000000) rotate(-8.000000) translate(-160.500000, -189.000000) " x="155" y="175" width="11" height="28"></rect>
            <rect id="Rectangle-2-Copy-4" fill="#9012FE" transform="translate(149.500000, 107.500000) rotate(-8.000000) translate(-149.500000, -107.500000) " x="141" y="88" width="17" height="39"></rect>
            <rect id="Rectangle-2-Copy-5" fill="#9012FE" transform="translate(168.500000, 114.500000) rotate(-4.000000) translate(-168.500000, -114.500000) " x="160" y="103" width="17" height="23"></rect>
            <rect id="Rectangle-2-Copy-6" fill="#9012FE" transform="translate(133.500000, 123.500000) rotate(-12.000000) translate(-133.500000, -123.500000) " x="125" y="117" width="17" height="13"></rect>
            <rect id="Rectangle-2-Copy-7" fill="#9012FE" transform="translate(328.500000, 183.500000) rotate(45.000000) translate(-328.500000, -183.500000) " x="320" y="179" width="17" height="9"></rect>
            <text id="ECAL" font-family="LucidaGrande-Bold, Lucida Grande" font-size="25" font-weight="bold" fill="#009F5E">
                <tspan x="235" y="287">ECAL</tspan>
            </text>
            <text id="µ" font-family="LucidaGrande, Lucida Grande" font-size="25" font-weight="normal" fill="#D33682">
                <tspan x="209" y="42.7016602">µ</tspan>
            </text>
            <text id="tracks" font-family="LucidaGrande, Lucida Grande" font-size="25" font-weight="normal" fill="#4A4A4A">
                <tspan x="76" y="313">tracks</tspan>
            </text>
            <text id="charged-hadrons" font-family="LucidaGrande, Lucida Grande" font-size="25" font-weight="normal" fill="#4A4A4A">
                <tspan x="736" y="295">charged</tspan>
                <tspan x="736" y="324">hadrons</tspan>
            </text>
            <text id="HCAL" font-family="LucidaGrande-Bold, Lucida Grande" font-size="25" font-weight="bold" fill="#9012FE">
                <tspan x="276" y="221">HCAL</tspan>
            </text>
            <path d="M881.5,333.871582 C881.500003,333.871582 891.144531,322.109863 1037.03905,96.8104918 C992.383549,67.4519731 938.936444,50.371582 881.5,50.371582 C824.445166,50.371582 771.326837,67.2257613 726.852191,96.2269413 C866.828125,314.980957 881.499997,333.871582 881.5,333.871582 Z" id="Oval-1-Copy" fill="#F2F2F2"></path>
            <path d="M881.5,332.871582 C881.5,332.871582 897.300332,293.019524 897.300332,261.629169 C897.300332,230.238815 885.5,206.871582 885.5,206.871582" id="Line-Copy-11" stroke="#4A4A4A" stroke-width="2" stroke-linecap="square"></path>
            <path d="M881.5,332.871582 L863.298508,86.8799415" id="Line-Copy-12" stroke="#9012FE" stroke-width="2" stroke-linecap="square" stroke-dasharray="4,6"></path>
            <path d="M881.5,332.871582 L929,182" id="Line-Copy-13" stroke="#4A4A4A" stroke-width="2" stroke-linecap="square" stroke-dasharray="4,6"></path>
            <path d="M881.5,332.871582 C881.5,332.871582 872.471648,300.926512 870.670744,269.995442 C868.869841,239.064371 871.178311,207.119301 871.178311,207.119301" id="Line-Copy-10" stroke="#4A4A4A" stroke-width="2" stroke-linecap="square"></path>
            <path d="M881.5,332.871582 C881.5,332.871582 859.3906,300.926512 857.589697,269.995442 C855.788793,239.064371 874.178311,207.119301 874.178311,207.119301" id="Line-Copy-9" stroke="#4A4A4A" stroke-width="2" stroke-linecap="square"></path>
            <path d="M881.5,332.871582 C881.5,332.871582 874.971699,294.81445 845.984593,269.537655 C816.997487,244.260861 787.957524,248.157913 787.957524,248.157913" id="Line-Copy-8" stroke="#4A4A4A" stroke-width="2" stroke-linecap="square"></path>
            <path d="M881.5,332.871582 C881.5,332.871582 884.288174,297.054055 907.535414,270.9931 C930.782654,244.932146 959.890076,233.661668 959.890076,233.661668" id="Line-Copy-7" stroke="#4A4A4A" stroke-width="2" stroke-linecap="square"></path>
            <path d="M881.5,332.871582 C881.5,332.871582 877.13099,280.255518 888.619284,245.909052 C900.107579,211.562586 905.27776,183.374452 912.11459,141.885192 C918.95142,100.395933 897.20642,29.0313651 897.20642,29.0313651" id="Line-Copy-6" stroke="#D33682" stroke-width="2" stroke-linecap="square" stroke-dasharray="4,10"></path>
            <ellipse id="Oval-4-Copy" stroke="#4A4A4A" stroke-width="2" fill="#9B9B9B" cx="881.5" cy="333.871582" rx="3.5" ry="3.5"></ellipse>
            <text id="µ-copy" font-family="LucidaGrande, Lucida Grande" font-size="25" font-weight="normal" fill="#D33682">
                <tspan x="911" y="44.0732422">µ</tspan>
            </text>
            <polygon id="Rectangle-10" fill="#4A4A4A" transform="translate(963.000000, 232.000000) rotate(66.000000) translate(-963.000000, -232.000000) " points="963.25885 226 968 238 958 238"></polygon>
            <polygon id="Rectangle-10-Copy" fill="#4A4A4A" transform="translate(884.000000, 203.000000) rotate(-23.000000) translate(-884.000000, -203.000000) " points="884.25885 197 889 209 879 209"></polygon>
            <polygon id="Rectangle-10-Copy-2" fill="#4A4A4A" transform="translate(870.000000, 207.000000) rotate(-4.000000) translate(-870.000000, -207.000000) " points="870.25885 201 875 213 865 213"></polygon>
            <polygon id="Rectangle-10-Copy-5" fill="#9012FE" transform="translate(863.000000, 84.000000) rotate(-4.000000) translate(-863.000000, -84.000000) " points="863.25885 78 868 90 858 90"></polygon>
            <polygon id="Rectangle-10-Copy-7" fill="#D33682" transform="translate(897.000000, 29.000000) rotate(-17.000000) translate(-897.000000, -29.000000) " points="897.25885 23 902 35 892 35"></polygon>
            <polygon id="Rectangle-10-Copy-3" fill="#4A4A4A" transform="translate(875.000000, 206.000000) rotate(31.000000) translate(-875.000000, -206.000000) " points="875.25885 200 880 212 870 212"></polygon>
            <polygon id="Rectangle-10-Copy-6" fill="#009F5E" transform="translate(929.000000, 182.000000) rotate(17.000000) translate(-929.000000, -182.000000) " points="929.25885 176 934 188 924 188"></polygon>
            <polygon id="Rectangle-10-Copy-4" fill="#4A4A4A" transform="translate(784.000000, 248.000000) rotate(-90.000000) translate(-784.000000, -248.000000) " points="784.25885 242 789 254 779 254"></polygon>
            <text id="neutral-hadron" font-family="LucidaGrande, Lucida Grande" font-size="25" font-weight="normal" fill="#9012FE">
                <tspan x="765" y="108">neutral</tspan>
                <tspan x="765" y="137">hadron</tspan>
            </text>
            <text id="photon" font-family="LucidaGrande, Lucida Grande" font-size="25" font-weight="normal" fill="#009F5E">
                <tspan x="942.535754" y="191.105103">photon</tspan>
            </text>
            <use id="Rectangle-18" stroke="#9B9B9B" mask="url(#mask-4)" stroke-width="2" fill="#F2F2F2" xlink:href="#path-3"></use>
            <g id="Rectangle-19-+-Detector-level" transform="translate(40.000000, 368.000000)">
                <rect id="Rectangle-19" fill="#9B9B9B" x="0" y="0.25" width="279" height="47"></rect>
                <text id="Detector-level" font-family="LucidaGrande, Lucida Grande" font-size="30" font-weight="normal" fill="#FFFFFF">
                    <tspan x="39.3999023" y="35.25">Detector level</tspan>
                </text>
            </g>
            <g id="Rectangle-19-Copy-+-Particle-Flow" transform="translate(742.000000, 368.000000)">
                <rect id="Rectangle-19-Copy" fill="#9B9B9B" x="0" y="0" width="279" height="47"></rect>
                <text id="Particle-Flow" font-family="LucidaGrande-Bold, Lucida Grande" font-size="30" font-weight="bold" fill="#FFFFFF">
                    <tspan x="47.090332" y="35.25">P</tspan>
                    <tspan x="65.4887695" y="35.25" font-family="LucidaGrande, Lucida Grande" font-weight="normal">article </tspan>
                    <tspan x="164.468262" y="35.25">F</tspan>
                    <tspan x="181.694824" y="35.25" font-family="LucidaGrande, Lucida Grande" font-weight="normal">low</tspan>
                </text>
            </g>
        </g>
    </g>
</svg>